<svg width="26" height="21" viewBox="0 0 26 21" fill="none" xmlns="http://www.w3.org/2000/svg">
<path d="M19.6687 20.4C20.842 20.4 21.802 20.16 22.5487 19.68C23.2953 19.2 23.9087 18.5867 24.3887 17.84C24.922 16.9333 25.2953 16 25.5087 15.04C25.6687 14.0267 25.7487 13.2 25.7487 12.56C25.7487 9.94666 25.082 7.57333 23.7487 5.44C22.4153 3.30667 20.3353 1.57333 17.5087 0.239995L16.7887 1.68C18.442 2.37333 19.882 3.46666 21.1087 4.96C22.282 6.45333 22.8687 7.97333 22.8687 9.52C22.8687 10.16 22.7887 10.72 22.6287 11.2C21.7753 10.5067 20.7887 10.16 19.6687 10.16C18.282 10.16 17.082 10.6133 16.0687 11.52C15.0553 12.4267 14.5487 13.68 14.5487 15.28C14.5487 16.7733 15.0553 18 16.0687 18.96C17.082 19.92 18.282 20.4 19.6687 20.4ZM6.06868 20.4C7.24201 20.4 8.20201 20.16 8.94868 19.68C9.69535 19.2 10.3087 18.5867 10.7887 17.84C11.322 16.9333 11.6953 16 11.9087 15.04C12.0687 14.0267 12.1487 13.2 12.1487 12.56C12.1487 9.94666 11.482 7.57333 10.1487 5.44C8.81535 3.30667 6.73535 1.57333 3.90868 0.239995L3.18868 1.68C4.84201 2.37333 6.28201 3.46666 7.50868 4.96C8.68201 6.45333 9.26868 7.97333 9.26868 9.52C9.26868 10.16 9.18868 10.72 9.02868 11.2C8.17535 10.5067 7.18868 10.16 6.06868 10.16C4.68201 10.16 3.48201 10.6133 2.46868 11.52C1.45535 12.4267 0.948681 13.68 0.948681 15.28C0.948681 16.7733 1.45535 18 2.46868 18.96C3.48201 19.92 4.68201 20.4 6.06868 20.4Z" fill="#9A9A9A"/>
</svg>
