<svg width="25" height="21" viewBox="0 0 25 21" fill="none" xmlns="http://www.w3.org/2000/svg">
<path d="M6.15529 20.4C4.98196 20.4 4.02196 20.16 3.27529 19.68C2.52863 19.2 1.91529 18.5867 1.43529 17.84C0.90196 16.9333 0.528627 16 0.315293 15.04C0.155293 14.0267 0.0752932 13.2 0.0752932 12.56C0.0752932 9.94666 0.74196 7.57333 2.07529 5.44C3.40863 3.30667 5.48863 1.57333 8.31529 0.239995L9.03529 1.68C7.38196 2.37333 5.94196 3.46666 4.71529 4.96C3.54196 6.45333 2.95529 7.97333 2.95529 9.52C2.95529 10.16 3.03529 10.72 3.19529 11.2C4.04863 10.5067 5.03529 10.16 6.15529 10.16C7.54196 10.16 8.74196 10.6133 9.75529 11.52C10.7686 12.4267 11.2753 13.68 11.2753 15.28C11.2753 16.7733 10.7686 18 9.75529 18.96C8.74196 19.92 7.54196 20.4 6.15529 20.4ZM19.7553 20.4C18.582 20.4 17.622 20.16 16.8753 19.68C16.1286 19.2 15.5153 18.5867 15.0353 17.84C14.502 16.9333 14.1286 16 13.9153 15.04C13.7553 14.0267 13.6753 13.2 13.6753 12.56C13.6753 9.94666 14.342 7.57333 15.6753 5.44C17.0086 3.30667 19.0886 1.57333 21.9153 0.239995L22.6353 1.68C20.982 2.37333 19.542 3.46666 18.3153 4.96C17.142 6.45333 16.5553 7.97333 16.5553 9.52C16.5553 10.16 16.6353 10.72 16.7953 11.2C17.6486 10.5067 18.6353 10.16 19.7553 10.16C21.142 10.16 22.342 10.6133 23.3553 11.52C24.3686 12.4267 24.8753 13.68 24.8753 15.28C24.8753 16.7733 24.3686 18 23.3553 18.96C22.342 19.92 21.142 20.4 19.7553 20.4Z" fill="#9A9A9A"/>
</svg>
