<svg width="62" height="62" viewBox="0 0 62 62" fill="none" xmlns="http://www.w3.org/2000/svg">
<circle cx="30.9116" cy="31.1978" r="30.5" fill="white"/>
<path d="M30.4116 17.6978C26.6986 17.6978 23.1376 19.1727 20.5122 21.7983C17.8865 24.4237 16.4116 27.9847 16.4116 31.6978C16.4116 35.411 17.8865 38.9718 20.5122 41.5972C23.1375 44.2228 26.6986 45.6978 30.4116 45.6978C34.1249 45.6978 37.6856 44.2228 40.3111 41.5972C42.9367 38.9716 44.4116 35.4108 44.4116 31.6978C44.4116 29.2404 43.7647 26.8262 42.5359 24.6981C41.3071 22.5696 39.5398 20.8023 37.4116 19.5735C35.2833 18.3449 32.8691 17.698 30.4112 17.698L30.4116 17.6978ZM30.4116 44.1205V44.1202C27.1169 44.1202 23.9575 42.8114 21.6272 40.4819C19.2975 38.1522 17.9886 34.9922 17.9886 31.6974C17.9886 28.4027 19.2975 25.2433 21.6272 22.913C23.9569 20.5827 27.1166 19.2744 30.4116 19.2744C33.7066 19.2744 36.8664 20.5833 39.1961 22.913C41.5256 25.2427 42.8344 28.4024 42.8344 31.6974C42.8307 34.9912 41.5209 38.1485 39.1918 40.4775C36.8628 42.8065 33.7054 44.1163 30.4118 44.12L30.4116 44.1205Z" fill="#86BE3F"/>
<path d="M30.2846 20.6981C27.4007 20.6981 24.6352 21.8437 22.5962 23.8827C20.5572 25.922 19.4116 28.6876 19.4116 31.5711C19.4116 34.4546 20.5572 37.2206 22.5962 39.2594C24.6355 41.2987 27.4011 42.4443 30.2846 42.4443C33.1681 42.4443 35.9341 41.2987 37.9729 39.2594C40.0122 37.2204 41.1578 34.4546 41.1578 31.5711C41.1528 28.6888 40.0055 25.9259 37.9675 23.8878C35.9295 21.8496 33.1666 20.7027 30.2842 20.6978L30.2846 20.6981ZM30.2846 30.853C31.6336 30.8473 32.8915 31.5322 33.6187 32.6684C34.3459 33.8045 34.441 35.2336 33.8712 36.4562C33.3011 37.6786 32.145 38.5243 30.8073 38.6978V39.3932V39.393C30.7758 39.7989 30.4373 40.112 30.0303 40.112C29.6234 40.112 29.2849 39.7989 29.2534 39.393V38.595C28.419 38.3682 27.6821 37.8735 27.1559 37.1874C26.63 36.5011 26.3437 35.661 26.3412 34.7963C26.3245 34.5798 26.3989 34.3662 26.5464 34.2068C26.6938 34.0474 26.9012 33.9568 27.1182 33.9568C27.3355 33.9568 27.5427 34.0474 27.6903 34.2068C27.8378 34.3662 27.9122 34.5798 27.8952 34.7963C27.8952 35.43 28.147 36.0377 28.5951 36.4858C29.0432 36.9339 29.651 37.1857 30.2846 37.1857C30.9185 37.1857 31.5262 36.9339 31.9743 36.4858C32.4222 36.0377 32.674 35.43 32.674 34.7963C32.674 34.1627 32.4222 33.5549 31.9743 33.1069C31.5262 32.6587 30.9185 32.407 30.2846 32.407C28.9991 32.4094 27.7935 31.7847 27.0544 30.733C26.3151 29.6811 26.1361 28.335 26.5738 27.1264C27.0118 25.9178 28.012 24.9989 29.2533 24.6649V23.7314V23.7317C29.2849 23.3257 29.6234 23.0126 30.0303 23.0126C30.4373 23.0126 30.7757 23.3257 30.8073 23.7317V24.5717C31.7525 24.6991 32.6197 25.1642 33.2486 25.8813C33.8773 26.5987 34.2251 27.5191 34.2278 28.473C34.2448 28.6895 34.1704 28.9031 34.0229 29.0625C33.8753 29.2219 33.6681 29.3125 33.4509 29.3125C33.2338 29.3125 33.0264 29.2219 32.8791 29.0625C32.7315 28.9031 32.6571 28.6895 32.6739 28.473C32.6763 27.8388 32.4265 27.2296 31.9796 26.7795C31.5325 26.3297 30.925 26.076 30.2909 26.0742C29.6565 26.0727 29.0478 26.3232 28.5985 26.7709C28.1491 27.2183 27.8961 27.8262 27.8954 28.4603C27.8944 29.0947 28.1457 29.7032 28.5941 30.152C29.0422 30.6006 29.6504 30.8529 30.2845 30.8529L30.2846 30.853Z" fill="#86BE3F"/>
</svg>
