<svg width="24" height="23" viewBox="0 0 24 23" fill="none" xmlns="http://www.w3.org/2000/svg">
<path d="M21.7477 16.1166C21.4214 15.9374 21.0118 16.0566 20.8327 16.3827C20.6535 16.7089 20.7726 17.1186 21.0988 17.2978C21.9015 17.7387 22.3618 18.2275 22.3618 18.6389C22.3618 19.1421 21.6489 19.922 19.648 20.6018C17.6712 21.2734 15.0294 21.6433 12.2095 21.6433C9.3895 21.6433 6.74778 21.2734 4.77099 20.6018C2.77004 19.922 2.05713 19.1421 2.05713 18.6389C2.05713 18.2275 2.51749 17.7387 3.32015 17.2977C3.64633 17.1186 3.76546 16.7089 3.58627 16.3827C3.40708 16.0566 2.99752 15.9374 2.67126 16.1166C1.77632 16.6083 0.709473 17.445 0.709473 18.6389C0.709473 19.5542 1.33892 20.8591 4.33745 21.8778C6.45022 22.5956 9.24589 22.9909 12.2095 22.9909C15.1731 22.9909 17.9687 22.5956 20.0815 21.8778C23.08 20.8591 23.7095 19.5542 23.7095 18.6389C23.7095 17.445 22.6426 16.6082 21.7477 16.1166Z" fill="white"/>
<path d="M7.12216 19.6278C8.49003 20.0142 10.2967 20.2271 12.2095 20.2271C14.1222 20.2271 15.9289 20.0143 17.2968 19.6278C18.9703 19.1551 19.8188 18.4708 19.8188 17.594C19.8188 16.7171 18.9703 16.0329 17.2968 15.5602C16.9253 15.4552 16.5213 15.3632 16.0917 15.2847C15.8584 15.6877 15.614 16.1026 15.3585 16.5294C15.8339 16.6007 16.2803 16.6882 16.6857 16.7914C17.9172 17.1051 18.3672 17.4583 18.4597 17.594C18.3671 17.7298 17.9173 18.0829 16.6857 18.3966C15.52 18.6935 14.0203 18.8628 12.4407 18.878C12.3642 18.8836 12.2871 18.8868 12.2095 18.8868C12.1318 18.8868 12.0548 18.8836 11.9782 18.878C10.3986 18.8628 8.89887 18.6935 7.73319 18.3966C6.50161 18.0829 6.05172 17.7298 5.95922 17.594C6.05172 17.4583 6.50166 17.1051 7.73323 16.7914C8.13861 16.6882 8.585 16.6007 9.0605 16.5294C8.80494 16.1026 8.56052 15.6877 8.32724 15.2847C7.89769 15.3632 7.49362 15.4552 7.12216 15.5602C5.44869 16.0329 4.60016 16.7172 4.60016 17.594C4.60016 18.4708 5.44869 19.155 7.12216 19.6278Z" fill="white"/>
<path d="M12.2097 17.5392C12.8095 17.5392 13.3544 17.2336 13.6673 16.7216C15.86 13.1343 18.4736 8.40643 18.4736 6.25507C18.4736 2.80116 15.6637 -0.00878906 12.2097 -0.00878906C8.75575 -0.00878906 5.9458 2.80116 5.9458 6.25507C5.9458 8.40643 8.55949 13.1343 10.7521 16.7216C11.065 17.2336 11.6099 17.5392 12.2097 17.5392ZM9.69197 5.82499C9.69197 4.43677 10.8214 3.30734 12.2097 3.30734C13.598 3.30734 14.7274 4.43677 14.7274 5.82499C14.7274 7.21326 13.598 8.34268 12.2097 8.34268C10.8214 8.34268 9.69197 7.2133 9.69197 5.82499Z" fill="white"/>
</svg>
