<svg width="20" height="19" viewBox="0 0 20 19" fill="none" xmlns="http://www.w3.org/2000/svg">
<path d="M19.2112 13.9353L16.5542 11.2838C15.6052 10.3368 13.992 10.7156 13.6124 11.9467C13.3277 12.799 12.3787 13.2724 11.5247 13.083C9.62675 12.6095 7.06456 10.1474 6.59008 8.15879C6.3054 7.30648 6.87477 6.35952 7.72884 6.07546C8.96248 5.69668 9.34207 4.08684 8.39311 3.13987L5.73602 0.488368C4.97685 -0.174508 3.8381 -0.174508 3.17383 0.488368L1.37081 2.2876C-0.432213 4.18153 1.5606 9.20045 6.02071 13.6512C10.4808 18.1019 15.5103 20.1853 17.4082 18.2913L19.2112 16.4921C19.8755 15.7345 19.8755 14.5982 19.2112 13.9353Z" fill="white"/>
</svg>
